<svg width="215" height="215" viewBox="0 0 215 215" fill="none" xmlns="http://www.w3.org/2000/svg">
<path d="M107.5 107.276C97.6458 107.276 89.5833 104.141 83.3125 97.8698C77.0416 91.599 73.9062 83.5365 73.9062 73.6823C73.9062 63.8282 77.0416 55.7656 83.3125 49.4948C89.5833 43.224 97.6458 40.0886 107.5 40.0886C117.354 40.0886 125.417 43.224 131.687 49.4948C137.958 55.7656 141.094 63.8282 141.094 73.6823C141.094 83.5365 137.958 91.599 131.687 97.8698C125.417 104.141 117.354 107.276 107.5 107.276ZM35.8333 179.167V158.115C35.8333 152.441 37.2517 147.589 40.0885 143.557C42.9253 139.526 46.5833 136.465 51.0625 134.375C61.0659 129.896 70.6588 126.536 79.8411 124.297C89.0234 122.057 98.243 120.938 107.5 120.938C116.757 120.938 125.939 122.095 135.047 124.409C144.154 126.723 153.71 130.045 163.714 134.375C168.342 136.465 172.075 139.526 174.911 143.557C177.748 147.589 179.167 152.441 179.167 158.115V179.167H35.8333ZM49.2708 165.729H165.729V158.115C165.729 155.726 165.02 153.449 163.602 151.284C162.183 149.119 160.429 147.514 158.339 146.469C148.783 141.84 140.049 138.668 132.135 136.951C124.222 135.234 116.01 134.375 107.5 134.375C98.9896 134.375 90.7031 135.234 82.6406 136.951C74.5781 138.668 65.8437 141.84 56.4375 146.469C54.3472 147.514 52.6302 149.119 51.2864 151.284C49.9427 153.449 49.2708 155.726 49.2708 158.115V165.729ZM107.5 93.8386C113.323 93.8386 118.138 91.9349 121.945 88.1276C125.753 84.3203 127.656 79.5052 127.656 73.6823C127.656 67.8594 125.753 63.0443 121.945 59.237C118.138 55.4297 113.323 53.5261 107.5 53.5261C101.677 53.5261 96.862 55.4297 93.0547 59.237C89.2474 63.0443 87.3437 67.8594 87.3437 73.6823C87.3437 79.5052 89.2474 84.3203 93.0547 88.1276C96.862 91.9349 101.677 93.8386 107.5 93.8386Z" fill="#2D2D2D" fill-opacity="0.1"/>
</svg>
